{"asset":{"version":"2.0","generator":"THREE.GLTFExporter r175"},"scenes":[{"name":"AuxScene","nodes":[22]}],"scene":0,"nodes":[{"mesh":0},{"mesh":1},{"mesh":2},{"mesh":3},{"mesh":4},{"mesh":5},{"mesh":6},{"mesh":7},{"mesh":8},{"mesh":9},{"mesh":10},{"mesh":11},{"mesh":12},{"mesh":13},{"mesh":14},{"mesh":15},{"mesh":16},{"mesh":17},{"matrix":[0.1157294240894513,0,-0.11572942408945133,0,0,-0.16366612111292964,0,0,0.11572942408945133,0,0.1157294240894513,0,0,0,0,1],"children":[0,1,2,3,4,5,6,7,8,9,10,11,12,13,14,15,16,17]},{"children":[18]},{"matrix":[1,0,0,0,0,1,0,0,0,0,1,0,-24.79502045933438,49.18596563089499,24.332102790568623,1],"children":[19]},{"children":[20]},{"children":[21]}],"bufferViews":[{"buffer":0,"byteOffset":0,"byteLength":1584,"target":34962,"byteStride":12},{"buffer":0,"byteOffset":1584,"byteLength":1056,"target":34962,"byteStride":8},{"buffer":0,"byteOffset":2640,"byteLength":1584,"target":34962,"byteStride":12},{"buffer":0,"byteOffset":4224,"byteLength":3312,"target":34962,"byteStride":12},{"buffer":0,"byteOffset":7536,"byteLength":2208,"target":34962,"byteStride":8},{"buffer":0,"byteOffset":9744,"byteLength":3312,"target":34962,"byteStride":12},{"buffer":0,"byteOffset":13056,"byteLength":1584,"target":34962,"byteStride":12},{"buffer":0,"byteOffset":14640,"byteLength":1056,"target":34962,"byteStride":8},{"buffer":0,"byteOffset":15696,"byteLength":1584,"target":34962,"byteStride":12},{"buffer":0,"byteOffset":17280,"byteLength":83664,"target":34962,"byteStride":12},{"buffer":0,"byteOffset":100944,"byteLength":55776,"target":34962,"byteStride":8},{"buffer":0,"byteOffset":156720,"byteLength":83664,"target":34962,"byteStride":12},{"buffer":0,"byteOffset":240384,"byteLength":1584,"target":34962,"byteStride":12},{"buffer":0,"byteOffset":241968,"byteLength":1056,"target":34962,"byteStride":8},{"buffer":0,"byteOffset":243024,"byteLength":1584,"target":34962,"byteStride":12},{"buffer":0,"byteOffset":244608,"byteLength":3312,"target":34962,"byteStride":12},{"buffer":0,"byteOffset":247920,"byteLength":2208,"target":34962,"byteStride":8},{"buffer":0,"byteOffset":250128,"byteLength":3312,"target":34962,"byteStride":12},{"buffer":0,"byteOffset":253440,"byteLength":2448,"target":34962,"byteStride":12},{"buffer":0,"byteOffset":255888,"byteLength":1632,"target":34962,"byteStride":8},{"buffer":0,"byteOffset":257520,"byteLength":2448,"target":34962,"byteStride":12},{"buffer":0,"byteOffset":259968,"byteLength":2448,"target":34962,"byteStride":12},{"buffer":0,"byteOffset":262416,"byteLength":1632,"target":34962,"byteStride":8},{"buffer":0,"byteOffset":264048,"byteLength":2448,"target":34962,"byteStride":12},{"buffer":0,"byteOffset":266496,"byteLength":118224,"target":34962,"byteStride":12},{"buffer":0,"byteOffset":384720,"byteLength":78816,"target":34962,"byteStride":8},{"buffer":0,"byteOffset":463536,"byteLength":118224,"target":34962,"byteStride":12},{"buffer":0,"byteOffset":581760,"byteLength":6768,"target":34962,"byteStride":12},{"buffer":0,"byteOffset":588528,"byteLength":4512,"target":34962,"byteStride":8},{"buffer":0,"byteOffset":593040,"byteLength":6768,"target":34962,"byteStride":12},{"buffer":0,"byteOffset":599808,"byteLength":3312,"target":34962,"byteStride":12},{"buffer":0,"byteOffset":603120,"byteLength":2208,"target":34962,"byteStride":8},{"buffer":0,"byteOffset":605328,"byteLength":3312,"target":34962,"byteStride":12},{"buffer":0,"byteOffset":608640,"byteLength":1584,"target":34962,"byteStride":12},{"buffer":0,"byteOffset":610224,"byteLength":1056,"target":34962,"byteStride":8},{"buffer":0,"byteOffset":611280,"byteLength":1584,"target":34962,"byteStride":12},{"buffer":0,"byteOffset":612864,"byteLength":3312,"target":34962,"byteStride":12},{"buffer":0,"byteOffset":616176,"byteLength":2208,"target":34962,"byteStride":8},{"buffer":0,"byteOffset":618384,"byteLength":3312,"target":34962,"byteStride":12},{"buffer":0,"byteOffset":621696,"byteLength":23616,"target":34962,"byteStride":12},{"buffer":0,"byteOffset":645312,"byteLength":15744,"target":34962,"byteStride":8},{"buffer":0,"byteOffset":661056,"byteLength":23616,"target":34962,"byteStride":12},{"buffer":0,"byteOffset":684672,"byteLength":27072,"target":34962,"byteStride":12},{"buffer":0,"byteOffset":711744,"byteLength":18048,"target":34962,"byteStride":8},{"buffer":0,"byteOffset":729792,"byteLength":27072,"target":34962,"byteStride":12},{"buffer":0,"byteOffset":756864,"byteLength":27072,"target":34962,"byteStride":12},{"buffer":0,"byteOffset":783936,"byteLength":18048,"target":34962,"byteStride":8},{"buffer":0,"byteOffset":801984,"byteLength":27072,"target":34962,"byteStride":12},{"buffer":0,"byteOffset":829056,"byteLength":15408,"target":34962,"byteStride":12},{"buffer":0,"byteOffset":844464,"byteLength":10272,"target":34962,"byteStride":8},{"buffer":0,"byteOffset":854736,"byteLength":15408,"target":34962,"byteStride":12},{"buffer":0,"byteOffset":870144,"byteLength":15408,"target":34962,"byteStride":12},{"buffer":0,"byteOffset":885552,"byteLength":10272,"target":34962,"byteStride":8},{"buffer":0,"byteOffset":895824,"byteLength":15408,"target":34962,"byteStride":12}],"buffers":[{"byteLength":911232,"uri":"data:application/octet-stream;base64,"}],"accessors":[{"bufferView":0,"componentType":5126,"count":132,"max":[77.11389923095703,488.3030090332031,55.099998474121094],"min":[43.32149887084961,469.7080078125,-0.6000000238418579],"type":"VEC3"},{"bufferView":1,"componentType":5126,"count":132,"max":[488.3030090332031,488.1029968261719],"min":[43.32149887084961,-54.099998474121094],"type":"VEC2"},{"bufferView":2,"componentType":5126,"count":132,"max":[1,1,1],"min":[-1,-1,-1],"type":"VEC3"},{"bufferView":3,"componentType":5126,"count":276,"max":[82.89340209960938,517.2000122070312,55.099998474121094],"min":[20.20359992980957,441.8810119628906,-0.6000000238418579],"type":"VEC3"},{"bufferView":4,"componentType":5126,"count":276,"max":[517.2000122070312,517],"min":[20.20359992980957,-54.099998474121094],"type":"VEC2"},{"bufferView":5,"componentType":5126,"count":276,"max":[1,1,1],"min":[-1,-1,-1],"type":"VEC3"},{"bufferView":6,"componentType":5126,"count":132,"max":[121.3499984741211,495.3659973144531,55.099998474121094],"min":[88.84220123291016,476.7720031738281,-0.6000000238418579],"type":"VEC3"},{"bufferView":7,"componentType":5126,"count":132,"max":[495.3659973144531,495.1659851074219],"min":[88.84220123291016,-54.099998474121094],"type":"VEC2"},{"bufferView":8,"componentType":5126,"count":132,"max":[1,1,1],"min":[-1,-1,-1],"type":"VEC3"},{"bufferView":9,"componentType":5126,"count":6972,"max":[204.65673828125,518.9120483398438,55.099998474121094],"min":[128.83294677734375,440.1689453125,-0.6000000238418579],"type":"VEC3"},{"bufferView":10,"componentType":5126,"count":6972,"max":[507.2542724609375,518.7119750976562],"min":[129.0330047607422,-54.099998474121094],"type":"VEC2"},{"bufferView":11,"componentType":5126,"count":6972,"max":[0.9998204708099365,0.9998095035552979,1],"min":[-0.9997445940971375,-0.999794602394104,-1],"type":"VEC3"},{"bufferView":12,"componentType":5126,"count":132,"max":[268.38299560546875,488.3030090332031,55.099998474121094],"min":[234.58999633789062,469.7080078125,-0.6000000238418579],"type":"VEC3"},{"bufferView":13,"componentType":5126,"count":132,"max":[488.3030090332031,488.1029968261719],"min":[234.58999633789062,-54.099998474121094],"type":"VEC2"},{"bufferView":14,"componentType":5126,"count":132,"max":[1,1,1],"min":[-1,-1,-1],"type":"VEC3"},{"bufferView":15,"componentType":5126,"count":276,"max":[274.1619873046875,517.2000122070312,55.099998474121094],"min":[211.47300720214844,441.8810119628906,-0.6000000238418579],"type":"VEC3"},{"bufferView":16,"componentType":5126,"count":276,"max":[517.2000122070312,517],"min":[211.47300720214844,-54.099998474121094],"type":"VEC2"},{"bufferView":17,"componentType":5126,"count":276,"max":[1,1,1],"min":[-1,-1,-1],"type":"VEC3"},{"bufferView":18,"componentType":5126,"count":204,"max":[342.9649963378906,517.2000122070312,55.099998474121094],"min":[283.4859924316406,441.8810119628906,-0.6000000238418579],"type":"VEC3"},{"bufferView":19,"componentType":5126,"count":204,"max":[517.2000122070312,517],"min":[283.4859924316406,-54.099998474121094],"type":"VEC2"},{"bufferView":20,"componentType":5126,"count":204,"max":[1,1,1],"min":[-1,-1,-1],"type":"VEC3"},{"bufferView":21,"componentType":5126,"count":204,"max":[409.02099609375,517.2000122070312,55.099998474121094],"min":[349.5419921875,441.8810119628906,-0.6000000238418579],"type":"VEC3"},{"bufferView":22,"componentType":5126,"count":204,"max":[517.2000122070312,517],"min":[349.5419921875,-54.099998474121094],"type":"VEC2"},{"bufferView":23,"componentType":5126,"count":204,"max":[1,1,1],"min":[-1,-1,-1],"type":"VEC3"},{"bufferView":24,"componentType":5126,"count":9852,"max":[140.53509521484375,597.0400390625,55.099998474121094],"min":[99.34529876708984,545.9599609375,-0.6000000238418579],"type":"VEC3"},{"bufferView":25,"componentType":5126,"count":9852,"max":[591.23681640625,596.8400268554688],"min":[99.34529876708984,-54.099998474121094],"type":"VEC2"},{"bufferView":26,"componentType":5126,"count":9852,"max":[0.9996432662010193,0.9998875260353088,1],"min":[-0.9996851086616516,-0.9999279379844666,-1],"type":"VEC3"},{"bufferView":27,"componentType":5126,"count":564,"max":[203.51329040527344,596.2000122070312,55.099998474121094],"min":[147.88299560546875,546.7999877929688,-0.6000000238418579],"type":"VEC3"},{"bufferView":28,"componentType":5126,"count":564,"max":[596.2000122070312,596],"min":[147.88299560546875,-54.099998474121094],"type":"VEC2"},{"bufferView":29,"componentType":5126,"count":564,"max":[1,1,1],"min":[-1,-1,-1],"type":"VEC3"},{"bufferView":30,"componentType":5126,"count":276,"max":[262.0804138183594,596.2000122070312,55.099998474121094],"min":[208.05767822265625,546.7999877929688,-0.6000000238418579],"type":"VEC3"},{"bufferView":31,"componentType":5126,"count":276,"max":[596.2000122070312,596],"min":[208.05767822265625,-54.099998474121094],"type":"VEC2"},{"bufferView":32,"componentType":5126,"count":276,"max":[0.9204259514808655,1,1],"min":[-0.9185208082199097,-0.9999937415122986,-1],"type":"VEC3"},{"bufferView":33,"componentType":5126,"count":132,"max":[277.4750061035156,596.2000122070312,55.099998474121094],"min":[265.7349853515625,546.7999877929688,-0.6000000238418579],"type":"VEC3"},{"bufferView":34,"componentType":5126,"count":132,"max":[596.2000122070312,596],"min":[265.7349853515625,-54.099998474121094],"type":"VEC2"},{"bufferView":35,"componentType":5126,"count":132,"max":[1,1,1],"min":[-1,-1,-1],"type":"VEC3"},{"bufferView":36,"componentType":5126,"count":276,"max":[326.27398681640625,596.2000122070312,55.099998474121094],"min":[283.17401123046875,546.7999877929688,-0.6000000238418579],"type":"VEC3"},{"bufferView":37,"componentType":5126,"count":276,"max":[596.2000122070312,596],"min":[283.17401123046875,-54.099998474121094],"type":"VEC2"},{"bufferView":38,"componentType":5126,"count":276,"max":[1,1,1],"min":[-1,-1,-1],"type":"VEC3"},{"bufferView":39,"componentType":5126,"count":1968,"max":[424.27069091796875,384.2443542480469,55.099998474121094],"min":[261.9626770019531,26.746503829956055,-0.6000000238418579],"type":"VEC3"},{"bufferView":40,"componentType":5126,"count":1968,"max":[424.0705261230469,384.0438537597656],"min":[30.34223175048828,-54.099998474121094],"type":"VEC2"},{"bufferView":41,"componentType":5126,"count":1968,"max":[0.9999746084213257,0.9998811483383179,1],"min":[-0.9936665892601013,-0.9998214244842529,-1],"type":"VEC3"},{"bufferView":42,"componentType":5126,"count":2256,"max":[161.0860595703125,382.4979248046875,55.099998474121094],"min":[0.22915801405906677,26.98078155517578,-0.6000000238418579],"type":"VEC3"},{"bufferView":43,"componentType":5126,"count":2256,"max":[379.2713928222656,382.2972106933594],"min":[0.4293292462825775,-54.099998474121094],"type":"VEC2"},{"bufferView":44,"componentType":5126,"count":2256,"max":[0.9916014075279236,0.9997605085372925,1],"min":[-0.9999744892120361,-0.999646008014679,-1],"type":"VEC3"},{"bufferView":45,"componentType":5126,"count":2256,"max":[268.44708251953125,353.4750671386719,55.099998474121094],"min":[154.00193786621094,30.299999237060547,-0.6000000238418579],"type":"VEC3"},{"bufferView":46,"componentType":5126,"count":2256,"max":[351.10809326171875,353.27374267578125],"min":[32.55607223510742,-54.099998474121094],"type":"VEC2"},{"bufferView":47,"componentType":5126,"count":2256,"max":[0.9999040365219116,0.9941869378089905,1],"min":[-0.9997426867485046,-1,-1],"type":"VEC3"},{"bufferView":48,"componentType":5126,"count":1284,"max":[322.020263671875,92.08678436279297,55.099998474121094],"min":[253.74685668945312,4.012941360473633,-0.6000000238418579],"type":"VEC3"},{"bufferView":49,"componentType":5126,"count":1284,"max":[321.8200988769531,91.88528442382812],"min":[7.6565351486206055,-54.099998474121094],"type":"VEC2"},{"bufferView":50,"componentType":5126,"count":1284,"max":[0.9996802806854248,0.9968100786209106,1],"min":[-0.9962664842605591,-0.9973535537719727,-1],"type":"VEC3"},{"bufferView":51,"componentType":5126,"count":1284,"max":[168.75314331054688,92.08678436279297,55.099998474121094],"min":[100.479736328125,4.012941360473633,-0.6000000238418579],"type":"VEC3"},{"bufferView":52,"componentType":5126,"count":1284,"max":[168.5522003173828,91.88528442382812],"min":[7.6565351486206055,-54.099998474121094],"type":"VEC2"},{"bufferView":53,"componentType":5126,"count":1284,"max":[0.9962664842605591,0.9968101978302002,1],"min":[-0.9996802806854248,-0.9973534941673279,-1],"type":"VEC3"}],"materials":[{"pbrMetallicRoughness":{"baseColorFactor":[0.6375968739867731,0.6653872982754769,0.7083757798856457,1],"metallicFactor":0,"roughnessFactor":0.2},"doubleSided":true,"extensions":{"KHR_materials_clearcoat":{"clearcoatFactor":1,"clearcoatRoughnessFactor":0}}}],"meshes":[{"primitives":[{"mode":4,"attributes":{"POSITION":0,"TEXCOORD_0":1,"NORMAL":2},"material":0}]},{"primitives":[{"mode":4,"attributes":{"POSITION":3,"TEXCOORD_0":4,"NORMAL":5},"material":0}]},{"primitives":[{"mode":4,"attributes":{"POSITION":6,"TEXCOORD_0":7,"NORMAL":8},"material":0}]},{"primitives":[{"mode":4,"attributes":{"POSITION":9,"TEXCOORD_0":10,"NORMAL":11},"material":0}]},{"primitives":[{"mode":4,"attributes":{"POSITION":12,"TEXCOORD_0":13,"NORMAL":14},"material":0}]},{"primitives":[{"mode":4,"attributes":{"POSITION":15,"TEXCOORD_0":16,"NORMAL":17},"material":0}]},{"primitives":[{"mode":4,"attributes":{"POSITION":18,"TEXCOORD_0":19,"NORMAL":20},"material":0}]},{"primitives":[{"mode":4,"attributes":{"POSITION":21,"TEXCOORD_0":22,"NORMAL":23},"material":0}]},{"primitives":[{"mode":4,"attributes":{"POSITION":24,"TEXCOORD_0":25,"NORMAL":26},"material":0}]},{"primitives":[{"mode":4,"attributes":{"POSITION":27,"TEXCOORD_0":28,"NORMAL":29},"material":0}]},{"primitives":[{"mode":4,"attributes":{"POSITION":30,"TEXCOORD_0":31,"NORMAL":32},"material":0}]},{"primitives":[{"mode":4,"attributes":{"POSITION":33,"TEXCOORD_0":34,"NORMAL":35},"material":0}]},{"primitives":[{"mode":4,"attributes":{"POSITION":36,"TEXCOORD_0":37,"NORMAL":38},"material":0}]},{"primitives":[{"mode":4,"attributes":{"POSITION":39,"TEXCOORD_0":40,"NORMAL":41},"material":0}]},{"primitives":[{"mode":4,"attributes":{"POSITION":42,"TEXCOORD_0":43,"NORMAL":44},"material":0}]},{"primitives":[{"mode":4,"attributes":{"POSITION":45,"TEXCOORD_0":46,"NORMAL":47},"material":0}]},{"primitives":[{"mode":4,"attributes":{"POSITION":48,"TEXCOORD_0":49,"NORMAL":50},"material":0}]},{"primitives":[{"mode":4,"attributes":{"POSITION":51,"TEXCOORD_0":52,"NORMAL":53},"material":0}]}],"extensionsUsed":["KHR_materials_clearcoat"]}